<svg id="Capa_1" data-name="Capa 1" xmlns="http://www.w3.org/2000/svg" viewBox="0 0 487.55 434.03"><defs><style>.cls-1,.cls-3{fill:#25245c;}.cls-2,.cls-4,.cls-5,.cls-6,.cls-7,.cls-8{fill:none;}.cls-2,.cls-3,.cls-4,.cls-5,.cls-6,.cls-7,.cls-8{stroke:#25245c;stroke-miterlimit:10;}.cls-4{stroke-width:9px;}.cls-5{stroke-width:20px;}.cls-6{stroke-width:8px;}.cls-7{stroke-width:4px;}.cls-8{stroke-width:6px;}</style></defs><title>icons-call</title><path class="cls-1" d="M7380.54,7156.55a7.58,7.58,0,0,1-6.78,2.43c-4.88-.67-9.79-1.24-14.56-2.26a191.92,191.92,0,0,1-51.1,149.59c3.21,6.75,6.31,13.56,9.37,20.39a212.1,212.1,0,0,0,63.07-170.15Z" transform="translate(-6959.57 -6974.64)"/><path class="cls-2" d="M7380.54,7156.55a7.58,7.58,0,0,1-6.78,2.43c-4.88-.67-9.79-1.24-14.56-2.26a191.92,191.92,0,0,1-51.1,149.59c3.21,6.75,6.31,13.56,9.37,20.39a212.1,212.1,0,0,0,63.07-170.15Z" transform="translate(-6959.57 -6974.64)"/><path class="cls-1" d="M7237.1,6992.27c-115.44-18.43-224,60.22-242.39,175.67q-1.65,10.38-2.27,20.67c5.88.32,12.39,0,18.7.37.39-6,1-12,2-18.1,16.68-104.55,115-175.78,219.52-159.1,6,1,11.87,2.22,17.64,3.7a169,169,0,0,0,4.15-19.67C7248.77,6994.41,7243,6993.21,7237.1,6992.27Z" transform="translate(-6959.57 -6974.64)"/><path class="cls-2" d="M7237.1,6992.27c-115.44-18.43-224,60.22-242.39,175.67q-1.65,10.38-2.27,20.67c5.88.32,12.39,0,18.7.37.39-6,1-12,2-18.1,16.68-104.55,115-175.78,219.52-159.1,6,1,11.87,2.22,17.64,3.7a169,169,0,0,0,4.15-19.67C7248.77,6994.41,7243,6993.21,7237.1,6992.27Z" transform="translate(-6959.57 -6974.64)"/><polygon class="cls-3" points="42.59 207.29 18.46 173.77 6.76 182.2 40.56 229.13 87.49 195.33 77.83 181.91 42.59 207.29"/><polygon class="cls-3" points="409.83 185.99 444.47 208.47 452.32 196.38 403.81 164.89 372.32 213.4 386.19 222.4 409.83 185.99"/><path class="cls-4" d="M7101.72,7353.72c-9.79-12-12.27-15.38-16.36-15.17-2.78.13-5.1,2.11-9.74,6.06-7.54,6.41-7.55,9.21-10.52,10.75-10.46,5.41-33.12-17.46-45.53-34.63-6.25-8.64-14.52-20.36-10.48-27.71,1.28-2.33,2.85-2.49,14-11.12,8-6.18,8.57-7.19,9-8.16,2.32-5.72-2-12.19-9.33-23-9-13.21-13.51-19.82-20.44-20-2.78-.09-6.58,2.4-14.06,7.38-11.75,7.83-17.69,11.86-20.68,18a37.71,37.71,0,0,0-3.27,13.44,46,46,0,0,0,.71,12.92,476.87,476.87,0,0,0,30.17,51.56s30.52,45.35,64.6,64.54c7,4,13.75,6.53,21.05,5.28,3.45-.6,9.1-4,20.4-10.76a36.87,36.87,0,0,0,9.18-7.11c2.34-2.57,4.95-5.44,5.7-8.93C7117.1,7372.2,7114,7368.81,7101.72,7353.72ZM6991.9,7238.2l31,43.56Zm83.81,108.46,31.43,40.59Z" transform="translate(-6959.57 -6974.64)"/><path class="cls-5" d="M7053.3,7583.7" transform="translate(-6959.57 -6974.64)"/><path class="cls-6" d="M7277.07,6979.35v117.4l30.57,2.78a37.92,37.92,0,0,1,0,17.37c-2,8.19-6.69,10.93-5.56,12.5,2.37,3.28,25.7-3.6,34.73-21.53a34.72,34.72,0,0,0,2.78-7.65l102.81-1.39q.36-60.09.7-120.18Zm94.82,47.76h0Zm-65.64,19.62h0Zm73.63-19.62h0Z" transform="translate(-6959.57 -6974.64)"/><path class="cls-7" d="M7058.39,7350.7c10.45-1.84,16.78-5.65,20.72-9,2.4-2,5.86-5.59,9.59-4.82,1.63.34,2.65,1.37,4.94,3.91s5.27,5.9,8.6,9.92h195.64c-7.42-23.87-14.36-41.83-17.74-51A29.82,29.82,0,0,0,7262.4,7282a151.3,151.3,0,0,1-58.76-18.57l-22.18,28.55-31-26.61a196.28,196.28,0,0,1-31.05,9.42c-17.43,3.74-27.47,3.35-36.59,11.64-3.5,3.19-5.85,6.75-9.42,14.42A188.86,188.86,0,0,0,7058.39,7350.7Z" transform="translate(-6959.57 -6974.64)"/><path class="cls-7" d="M7151.71,7321.51l27.53-22.92,26.61,24,10.73-51-12.94-8.18-24.4,29.66-28.82-27.72-13.86,5Z" transform="translate(-6959.57 -6974.64)"/><path class="cls-7" d="M7172.59,7142.13a63.16,63.16,0,0,1-53.77,29.94l.55,44.35a60.06,60.06,0,0,0,23.84,43.24,74.8,74.8,0,0,0,16.82,7.58,74,74,0,0,0,14.78,2.95,77.83,77.83,0,0,0,31-8.87,55.22,55.22,0,0,0,19.59-17.74,58.09,58.09,0,0,0,9.8-25.93v-46.13a54.39,54.39,0,0,1-62.65-29.39Z" transform="translate(-6959.57 -6974.64)"/><path class="cls-7" d="M7118.08,7176.41c-4.28-2.22-18,7.3-18.57,19.41-.61,13.13,14.56,24.09,18.84,21.89,1.95-1,.88-4.28.79-19.6C7119.05,7181.37,7120.29,7177.56,7118.08,7176.41Z" transform="translate(-6959.57 -6974.64)"/><path class="cls-7" d="M7256.18,7180c3.5-12.47,1.9-33,.7-44.23,0-1.62-.06-13.66-10-21.92a28.43,28.43,0,0,0-20-6.28,56.06,56.06,0,0,0-18.85-19.22c-12.51-7.66-24.48-8-30.3-8.13-23.82-.44-40.64,12.17-45.46,15.89a78.33,78.33,0,0,0-26.24,37.33l-5.32,56.71a32.19,32.19,0,0,1,5.78-8c2.75-2.78,4.31-4.37,7-5.32,2.44-.85,4.07-.58,5.05-1.93s.54-3.52-.06-5.13a54.07,54.07,0,0,0,54.05-28.37c1.73,3.66,10.75,21.85,31.89,29.07a54.57,54.57,0,0,0,30.76,1.12l.74,9a17.29,17.29,0,0,1,13,9.8,2.1,2.1,0,0,0,1.34.61C7253.09,7191,7255.31,7183,7256.18,7180Z" transform="translate(-6959.57 -6974.64)"/><path class="cls-7" d="M7236,7180.51c3.36-1.69,14.07,6.61,15.52,17.18,1.92,14-13,27-16.4,25.33-1.86-.9.5-5.75.79-19.61C7236.22,7187.85,7233.49,7181.76,7236,7180.51Z" transform="translate(-6959.57 -6974.64)"/><path class="cls-7" d="M7114.75,7173.39" transform="translate(-6959.57 -6974.64)"/><path class="cls-8" d="M7186.64,7243.52l65.41,1.11q-.18-29.39-.37-58.76" transform="translate(-6959.57 -6974.64)"/></svg>