<svg id="Capa_1" data-name="Capa 1" xmlns="http://www.w3.org/2000/svg" viewBox="0 0 175.71 239.91"><defs><style>.cls-1,.cls-2,.cls-3{fill:none;}.cls-1,.cls-3{stroke:#1b1464;stroke-miterlimit:10;}.cls-1{stroke-width:5px;}.cls-3{stroke-width:6px;}</style></defs><title>icons-mapa</title><ellipse class="cls-1" cx="88.88" cy="221.32" rx="19.91" ry="5.13"/><path class="cls-1" d="M7263.87,7317.82c0,8.92-28.07,16.14-62.69,16.14s-62.69-7.22-62.69-16.14c0-3.59,4.57-6.91,12.29-9.6,11.43-4,29.75-6.53,50.4-6.53C7235.8,7301.69,7263.87,7308.91,7263.87,7317.82Z" transform="translate(-7111.47 -7096.55)"/><path class="cls-2" d="M7192.61,7178.22l-4.42,5.81h.93Z" transform="translate(-7111.47 -7096.55)"/><path class="cls-1" d="M7215.08,7184q-6.63-10.57-13.27-21.15l-9.2,15.34-3.49,5.81H7164.8v40.79h29.46v-25.6a8.43,8.43,0,0,1,7.84-4.52c4.62.25,6.85,4.32,7,4.52v25.6h29.07V7184Zm-30.59,26.31h-10.65v-13.9h10.65Zm35-13.9h10.66v13.9h-10.66Z" transform="translate(-7111.47 -7096.55)"/><rect class="cls-1" x="62.36" y="99.89" width="10.66" height="13.9"/><rect class="cls-1" x="108.01" y="99.89" width="10.66" height="13.9"/><path class="cls-1" d="M7202.1,7194.7a8.43,8.43,0,0,0-7.84,4.52v25.6h14.8v-25.6C7209,7199,7206.72,7195,7202.1,7194.7Z" transform="translate(-7111.47 -7096.55)"/><path class="cls-1" d="M7156.69,7149.87V7184h31.5l13.8-21.42q6.78,10.71,13.55,21.42h30.13v-34.16Z" transform="translate(-7111.47 -7096.55)"/><path class="cls-1" d="M7438.5,7111.86" transform="translate(-7111.47 -7096.55)"/><path class="cls-3" d="M7199.33,7099.55c-50.47,0-83.87,45-84.85,84.85-.07,3.1-.47,36.5,25.43,60.56,32.79,30.45,89.58,29.05,121-2.18,23.81-23.68,23.28-54.91,23.28-58.38A84.85,84.85,0,0,0,7199.33,7099.55Z" transform="translate(-7111.47 -7096.55)"/><path class="cls-3" d="M7168.53,7262a64.8,64.8,0,0,1,32.22,37.28,58.89,58.89,0,0,1,31.56-38.27,107.2,107.2,0,0,1-63.78,1Z" transform="translate(-7111.47 -7096.55)"/><path class="cls-3" d="M7199.27,7300.64v12.65c0,.1.33,1,.87,1s.8-.34,1-1v-11.83A3.9,3.9,0,0,1,7199.27,7300.64Z" transform="translate(-7111.47 -7096.55)"/></svg>