<svg xmlns="http://www.w3.org/2000/svg" xmlns:xlink="http://www.w3.org/1999/xlink" viewBox="0 0 60.17 55.77"><defs><style>.cls-1{isolation:isolate;}.cls-2{fill:#e53e72;}.cls-3{fill:#fff;}.cls-4{mix-blend-mode:multiply;fill:url(#radial-gradient);}</style><radialGradient id="radial-gradient" cx="-53.95" cy="37953.27" r="33.18" gradientTransform="translate(76.09 -4521.99) scale(0.85 0.12)" gradientUnits="userSpaceOnUse"><stop offset="0" stop-color="#bbb"/><stop offset="1" stop-color="#fff"/></radialGradient></defs><title>Asset 12</title><g class="cls-1"><g id="Layer_2" data-name="Layer 2"><g id="Layer_1-2" data-name="Layer 1"><path class="cls-2" d="M44,0H16A8,8,0,0,0,8,8V26a8,8,0,0,0,8,8h8.72l4.33,7.48a1.09,1.09,0,0,0,1.89,0L35.28,34H44a8,8,0,0,0,8-8V8A8,8,0,0,0,44,0Z"/><path class="cls-3" d="M26.24,12c0-2.46,1.31-4.45,3.77-4.45s3.76,2,3.76,4.45S32.46,16.42,30,16.42,26.24,14.43,26.24,12Z"/><path class="cls-3" d="M39.3,25.24h0a9.24,9.24,0,0,0-3-7.36,3.33,3.33,0,0,0-3.72-.51,6,6,0,0,1-5.17,0,3.33,3.33,0,0,0-3.72.51,9.24,9.24,0,0,0-3,7.36H39.3Z"/></g></g></g></svg>